<svg id="Layer_1" data-name="Layer 1" xmlns="http://www.w3.org/2000/svg" width="10.79cm" height="11.81cm" viewBox="0 0 305.83 334.9"><defs><style>.cls-1{fill:#f6a61c;}.cls-2{fill:none;}.cls-3{fill:#046076;}.cls-4{fill:#1db9dd;}.cls-5{fill:#0072ab;}.cls-6{fill:#00a0a8;fill-rule:evenodd;}</style></defs><title>Final_Logo</title><path class="cls-1" d="M206.18,55.46a38.82,38.82,0,0,1,21.27,6.3c-11.83.07-20.35.29-20.35.57s9.34.52,22,.6a39.24,39.24,0,0,1,6.93,6.45c-13.87.05-24.33.3-24.33.59s10.95.55,25.3.6l.3.42c-11.51.08-19.73.3-19.73.58s8.62.5,20.57.57a39.28,39.28,0,0,1,3.46,6c-15.73,0-28.21.3-28.21.62s12.77.6,28.76.6A40.43,40.43,0,0,1,244.66,88c-8.37.1-13.9.3-13.9.52s5.61.4,14.05.5a38,38,0,0,1,.35,4.11c-12.51.07-21.65.32-21.65.6s9.17.49,21.67.57v.12a40.08,40.08,0,0,1-.85,8.17c-13.24.08-23.11.3-23.11.6s9.74.52,22.84.6a40.86,40.86,0,0,1-2.24,6.5c-9.49.1-15.94.32-15.94.55s6.23.42,15.44.52c-.1.22-.2.42-.3.62-5.7.1-9.26.27-9.26.45s3.36.32,8.79.42l-7.87,6.48a27.45,27.45,0,0,0-5.11.35,22.6,22.6,0,0,0,4.31.29l-2.76,2.3q-8.48-5.53-17-11l-2.64-1.71a22.7,22.7,0,0,0,4.26-.3c0-.13-1.94-.25-5.28-.35l-1.55-1c8-.12,13.2-.3,13.2-.52s-5.92-.42-14.76-.52q-3.74-2.43-7.5-4.84c-2-1.27-4-2.59-6.13-3.68-2.86-1.52-8-1.12-11.7-.62-.65-1-1.32-2-2-3.09,10.53-.1,17.88-.3,17.88-.55s-7.72-.47-18.66-.57a38.89,38.89,0,0,0-2.93-3.74l-.25-.27c5.68-.1,9.19-.28,9.19-.45s-3.86-.32-10-.45l-.2-.2c3.38-.1,5.35-.22,5.35-.35a40.71,40.71,0,0,0-6-.37c-1.22-1.32-2.44-2.64-3.69-4,.4-1.37.87-2.71,1.4-4,12-.08,20.62-.33,20.62-.58s-8.4-.49-20.12-.59c.12-.25.22-.5.34-.75,8.57-.13,14.27-.33,14.27-.52s-5.47-.43-13.77-.53c.7-1.32,1.45-2.61,2.27-3.86,6.05-.1,9.84-.27,9.84-.45s-3.54-.32-9.24-.42C175,71,175.8,70,176.62,69c13.18-.07,23-.32,23-.6s-9.26-.52-21.89-.59c.2-.23.43-.43.63-.65,15.46,0,27.66-.3,27.66-.62s-11.55-.55-26.42-.6A38.92,38.92,0,0,1,206.18,55.46Z"/><path class="cls-2" d="M252.8,160.26l.75-1.34C252.76,159.32,252.45,159.76,252.8,160.26Z"/><path class="cls-2" d="M142.23,195.92c-5.11-.91-59-5-26.43-10.87,10.32-1.86,25-3.62,29.94-5.57,7.58-2.95-15.41-4.26-36.7-5.82-39.14-2.89-24-4.54-11.12-6.36,24.65-3.46,3.89-5.13-21.43-6.62A102.12,102.12,0,0,0,139,208C152.77,204,168,200.53,142.23,195.92Z"/><path class="cls-2" d="M206.92,179.21c.08,4.69,14,4.39,27.1,4.64a101.54,101.54,0,0,0,9.31-9.92C225.22,174.27,206.8,174.18,206.92,179.21Z"/><path class="cls-2" d="M118.28,148.7l.1.49-.61-.63c-11.91-3.26-26.92-6.79-32.08-3.31-4.08,2.75-10,3.58-15,3.77.48,1.15,1,2.29,1.52,3.42h60C129.54,151.94,124.34,150.37,118.28,148.7Z"/><path class="cls-2" d="M256,132.25c-4.54-4.15-6.93-7.88-7.52-10.14s-5.25-5.49-5.25-5.49c0,5.34,1.15,10.14,1.78,15.38.94.81,2.18,1.84,3.58,2.95,1.94,1.54,7.25,7,11.11,10.94q1.38-3.6,2.49-7.32C260.34,136.59,258.08,134.2,256,132.25Z"/><path class="cls-2" d="M262.38,131.66s.45,1.62.83,3.1c.23-.91.45-1.83.66-2.74Z"/><path class="cls-2" d="M242.63,139l1.18,11.46s-3.86-8.26-7.56-11.79-24.76-24.9-24.76-24.9l5.74,30.7-20.48-40.88c-.94-.3-3.81-2.7-6.35-2.6a53.17,53.17,0,0,1,6.2,15.37L173.46,88.88l-2.24,24.54,7-6.32c7.86,19.49,7.63,22.7,13.74,43.35-13.88-18.75-22.89-26.64-35.37-48.82,0,0-2.89,6.2-3.94,7.85s-3.81,22.66-3.91,23.54c1.06.9,2,1.7,2.89,2.33,5.5,4.08,25.38,15.1,25.38,15.1s-24.86-9.78-28.42-11-15.79-3.56-15.79-3.56l-14.22-23.08-.83,14.47,14.4,25.18H256.87q1.08-2.34,2.06-4.72Z"/><path class="cls-3" d="M118.28,148.7l-.51-.14.61.63Z"/><path class="cls-3" d="M264.91,126.77c-1.67-1.61-3.9-3.87-4.56-3.7-.94.24-5,4.65-5,4.65-4.13-8.16-8.28-11.66-14.83-18l-10.12,8.34c-3.31-2.16-10.91-7.08-15.54-10-6.05-3.88-13.8-9.09-17-10.77-2.12-1.13-6.91-.6-9.91-.12a63.74,63.74,0,0,0-5.34-7.5C178.28,84.85,169.8,76,169.8,76l-9.93,10.75s-10.77,6.22-13,7.87c-1.33,1-7.06,9.91-11.62,17.21-2.5-1.89-4.68-3.44-6.3-4.41-9.16-5.49-14.29-6-17.22-5.3s-15.58,8.73-21.44,14.22-11.52,10.62-18,13.38a18,18,0,0,0-6.52,4.91A100.55,100.55,0,0,0,70.65,149c5-.19,11-1,15-3.77,5.16-3.48,20.17.05,32.08,3.31l.51.14c6.06,1.67,11.26,3.24,13.84,3.74l-14.4-25.18.83-14.47,14.22,23.08s12.25,2.3,15.79,3.56,28.42,11,28.42,11-19.88-11-25.38-15.1c-.84-.63-1.83-1.43-2.89-2.33.1-.88,2.91-21.92,3.91-23.54s3.94-7.85,3.94-7.85c12.48,22.18,21.49,30.07,35.37,48.82-6.11-20.65-5.88-23.86-13.74-43.35l-7,6.32,2.24-24.54,23.14,27.47A53.17,53.17,0,0,0,190.4,101c2.54-.1,5.41,2.3,6.35,2.6l20.48,40.88-5.74-30.7s21,21.36,24.76,24.9,7.56,11.79,7.56,11.79L242.63,139l16.3,8.73.72-1.83c-3.86-4-9.17-9.4-11.11-10.94-1.4-1.11-2.64-2.14-3.58-2.95-.63-5.24-1.78-10-1.78-15.38,0,0,4.65,3.23,5.25,5.49s3,6,7.52,10.14c2.13,1.95,4.39,4.34,6.19,6.32.38-1.26.74-2.53,1.07-3.81-.38-1.48-.83-3.1-.83-3.1l1.49.36Q264.46,129.42,264.91,126.77Z"/><path class="cls-4" d="M72.17,152.44q2,4.23,4.32,8.24c25.32,1.49,46.08,3.16,21.43,6.62-12.91,1.82-28,3.47,11.12,6.36,21.29,1.56,44.28,2.87,36.7,5.82-4.91,2-19.62,3.71-29.94,5.57-32.56,5.82,21.32,10,26.43,10.87C168,200.53,152.77,204,139,208A102,102,0,0,0,234,183.85c-13.15-.25-27,.05-27.1-4.64-.12-5,18.3-4.94,36.41-5.28a102.67,102.67,0,0,0,9.47-13.67c-.35-.5,0-.94.75-1.34q1.77-3.18,3.32-6.48H72.17Zm89,10.41c11.32-1.06-31-5.18-12-5.27,7.31,0,22.35-.09,33.83-.18,19.28-.09,10.17,1.43,2.89,3.14-5.17,1.18-8.22,2.68-5,2.89,3.93.27,8.13.43,12.09.52,16.11.36,27.8-.25-5,2.74-19,1.73-5,3.56,4.23,5.08,3.71.61,6.67,1.19,6.42,1.65-1.12,2.25-24.48.7-38.22.39s-5.42-2.89-.63-4.56C167.51,166.6,110.59,167.63,161.18,162.85Z"/><path class="cls-5" d="M159.81,169.25c-4.79,1.67-13.1,4.29.63,4.56s37.1,1.86,38.22-.39c.25-.46-2.71-1-6.42-1.65-9.26-1.52-23.27-3.35-4.23-5.08,32.76-3,21.07-2.38,5-2.74-4-.09-8.16-.25-12.09-.52-3.23-.21-.18-1.71,5-2.89,7.28-1.71,16.39-3.23-2.89-3.14-11.48.09-26.52.15-33.83.18-19,.09,23.35,4.21,12,5.27C110.59,167.63,167.51,166.6,159.81,169.25Z"/><path class="cls-6" d="M94.85,45.08c2.77-.31,12.24,2.42,14.57,6.78a4.38,4.38,0,0,0-.65-3.3c3.11,2.69,6.41,6.82,7.59,11a7.58,7.58,0,0,0,.36-4.1,14.93,14.93,0,0,1,4.43,9.33,4.83,4.83,0,0,0,1.4-2.63c3,2.89,4,6.24,4.75,9.62,3.72-17.25-7.48-33.67-27.19-36.43,1.18-1.28,4.64-2.53,7.62-1.8a4.3,4.3,0,0,0-2.83-1.7,13.17,13.17,0,0,1,8.48.44,7.62,7.62,0,0,0-3.07-2.08,19.39,19.39,0,0,1,9,1.44,4.27,4.27,0,0,0-1.7-1.89c4-.2,6.69.36,9.21,1.69-10-8.66-24.26-10.52-34.52-3.2,1.21-12.55-7.53-24-20-28.29,2.41,1.51,4.23,3.54,6.07,7.12A4.25,4.25,0,0,0,75.9,6.6a19.32,19.32,0,0,1,5.77,7.12,7.59,7.59,0,0,0-3.33-1.62A13.2,13.2,0,0,1,83,19.22a4.36,4.36,0,0,0-2.89-1.6c2.12,2.22,2.77,5.84,2.26,7.5C70.08,9.43,50.26,7.94,37.18,19.79c3.32-1,6.69-1.88,10.7-.69a4.84,4.84,0,0,0-1.58,2.52,15,15,0,0,1,10.31-.83,7.51,7.51,0,0,0-3.38,2.37c4.25-1.09,9.48-.3,13.35,1.05a4.38,4.38,0,0,0-3.18,1.08c4.95-.16,12.05,6.68,13.16,9.24C56.3,22.63,36.66,31.65,31.9,49.31c3.2-4.08,8.49-7.86,12.13-8.57a9.81,9.81,0,0,0-1.29,2.11,24.08,24.08,0,0,1,11.69-4.44A8.2,8.2,0,0,0,52.35,41c3.13-1.5,7.68-2.4,11-1.74A4.7,4.7,0,0,0,61.05,41a15.69,15.69,0,0,1,10.52,1C57.76,45.54,48.8,60.16,50.3,71.42a22,22,0,0,1,7.13-9.5,6.88,6.88,0,0,0-.45,2.9c1.85-3.55,5.42-7.9,9.1-9.65a4.29,4.29,0,0,0-.56,2.23c3.09-3.31,6.07-5,8.92-5.24a6.42,6.42,0,0,0-2.3,2.68,8.7,8.7,0,0,1,5.25-2,109.41,109.41,0,1,0,153-21.22A101.87,101.87,0,1,1,78.91,54.11a8.48,8.48,0,0,1,.56,5,6.55,6.55,0,0,0,1.17-3.34c1.19,2.61,1.24,6-.08,10.35a4.34,4.34,0,0,0,1.65-1.6c.32,4.06-1.66,9.33-3.8,12.71a7.22,7.22,0,0,0,2.28-1.85A21.93,21.93,0,0,1,76,86.27c10.5-4.33,18.69-19.4,14.84-33.12A15.74,15.74,0,0,1,97,61.76a4.73,4.73,0,0,0,.43-2.87c2.22,2.52,3.71,6.91,4,10.37a8.19,8.19,0,0,0,1.17-3.07,24,24,0,0,1,2,12.34,9.4,9.4,0,0,0,1.19-2.17c1.2,3.51.57,10-1.35,14.79,12.91-13,10.9-34.47-9.53-46.07"/><path class="cls-3" d="M46.83,276.66a33.85,33.85,0,0,1-3.39,10.92,13.4,13.4,0,0,1-6,5.81,21.19,21.19,0,0,1-9.1,1.75,15.52,15.52,0,0,1-9-2.94,17.74,17.74,0,0,1-5.87-7.84,31.42,31.42,0,0,1-2.07-12,29.58,29.58,0,0,1,2.17-11.9,17.62,17.62,0,0,1,6.16-7.7,16.58,16.58,0,0,1,9.59-2.73,17.1,17.1,0,0,1,10,3q4.27,3,6.16,9.9h.63l-.07-12a33.3,33.3,0,0,0-7.46-2.73,41.49,41.49,0,0,0-10-1.12,35,35,0,0,0-15.29,3.08A22.66,22.66,0,0,0,3.43,259a28.54,28.54,0,0,0,.07,27.26A22.86,22.86,0,0,0,13.41,295a35,35,0,0,0,14.94,3.11,28.74,28.74,0,0,0,9.1-1.29,20.44,20.44,0,0,0,6.44-3.4A17.64,17.64,0,0,0,48,288.7l-.63-12Z"/><path class="cls-3" d="M90,288.81a13.08,13.08,0,0,1-4.55,3.92,13.31,13.31,0,0,1-6.16,1.36H70.07V274.42h9.24a6,6,0,0,1,4.27,1.75,5.8,5.8,0,0,1,1.68,4.27V281H86V264.9h-.7v.49a5.91,5.91,0,0,1-6,6.09H70.07V251.11H82.51a6.9,6.9,0,0,1,4.26,2,7.1,7.1,0,0,1,1.92,5.18v.84h.7V246.84a9.91,9.91,0,0,1-2.1.56c-1,.19-2,.35-3.18.49a27,27,0,0,1-3.26.21H54.18v.7h.91a4.29,4.29,0,0,1,3.12,1.3,4.52,4.52,0,0,1,1.36,3.11V292a4.54,4.54,0,0,1-1.36,3.12,4.28,4.28,0,0,1-3.12,1.29h-.91v.7H90.44l3.22-14.35H93A20.69,20.69,0,0,1,90,288.81Z"/><path class="cls-3" d="M130.2,248.8H131a2.63,2.63,0,0,1,1.75.67,3.36,3.36,0,0,1,1.05,1.68,2.36,2.36,0,0,1-.35,2h0l-10.4,18.12-10-18.16a3,3,0,0,1,.12-2.86,2.53,2.53,0,0,1,2.34-1.44h.91v-.7H93.31v.7h1a7.3,7.3,0,0,1,4.13,1.26,9.33,9.33,0,0,1,2.87,2.87h0l13.28,21.92V292a4.54,4.54,0,0,1-1.36,3.12,4.28,4.28,0,0,1-3.12,1.29h-.91v.7h21.21v-.7h-.84a4.38,4.38,0,0,1-3.15-1.29,4.19,4.19,0,0,1-1.33-3.12V274.85l13.74-21.91h0a10,10,0,0,1,3-2.87A7.32,7.32,0,0,1,146,248.8h1v-.7H130.2Zm-9,25.76h0Z"/><path class="cls-3" d="M183.33,288.81a13.08,13.08,0,0,1-4.55,3.92,13.31,13.31,0,0,1-6.16,1.36h-9.17V253.21a4.52,4.52,0,0,1,1.36-3.11,4.29,4.29,0,0,1,3.12-1.3h.91v-.7H147.56v.7h.91a4.25,4.25,0,0,1,3.11,1.3,4.49,4.49,0,0,1,1.37,3.11V292a4.51,4.51,0,0,1-1.37,3.12,4.24,4.24,0,0,1-3.11,1.29h-.91v.7h36.26L187,282.75h-.7A20.69,20.69,0,0,1,183.33,288.81Z"/><path class="cls-3" d="M232.78,250.24a35.7,35.7,0,0,0-29.19,0,22.6,22.6,0,0,0-9.55,8.82,29,29,0,0,0,0,27.12,22.66,22.66,0,0,0,9.55,8.79,35.8,35.8,0,0,0,29.19,0,22.82,22.82,0,0,0,9.59-8.82,28.76,28.76,0,0,0,0-27.13A22.86,22.86,0,0,0,232.78,250.24Zm-.52,34.33a17.77,17.77,0,0,1-5.53,7.81,14.55,14.55,0,0,1-17,0,17.59,17.59,0,0,1-5.56-7.81,37.53,37.53,0,0,1,0-23.94,17.5,17.5,0,0,1,5.56-7.8,14.5,14.5,0,0,1,17,0,17.68,17.68,0,0,1,5.53,7.8,37.53,37.53,0,0,1,0,23.94Z"/><path class="cls-3" d="M300.23,248.1H284.62v.7H286a4.11,4.11,0,0,1,3,1.23,4.39,4.39,0,0,1,1.3,3v27.67l-35.35-33.69h-.7a51.53,51.53,0,0,1,.84,8.75v36.33a4.3,4.3,0,0,1-4.27,4.27h-1.33v.7h21.21v-.7h-1.33a4.3,4.3,0,0,1-4.27-4.27h0L265,264.4l35.41,33.68h.63c-.28-1.49-.49-2.92-.63-4.3a46.5,46.5,0,0,1-.21-4.66V253.07a4.29,4.29,0,0,1,1.33-3,4.15,4.15,0,0,1,3-1.23h1.26v-.7Z"/><path class="cls-3" d="M22.22,310.12v2.06H15.34V334.9H12.86V312.18H6v-2.06Z"/><path class="cls-3" d="M45,334.9l-6.13-10.35H34.3V334.9H31.82V310.12h7.45q4.14,0,6.29,2a6.76,6.76,0,0,1,2.14,5.21,7.05,7.05,0,0,1-1.54,4.59,7.42,7.42,0,0,1-4.55,2.46L48,334.9ZM34.3,322.53h5a6.1,6.1,0,0,0,4.38-1.42,5,5,0,0,0,1.47-3.79,4.91,4.91,0,0,0-1.42-3.78,6.33,6.33,0,0,0-4.46-1.33h-5Z"/><path class="cls-3" d="M72.65,329H61.38l-2.16,5.89H56.6l9-24.46h2.8l9,24.46H74.82ZM71.91,327,67,313.56,62.13,327Z"/><path class="cls-3" d="M106.71,310.12,97.32,334.9H94.49l-9.4-24.78h2.7L95.9,332.2l8.19-22.08Z"/><path class="cls-3" d="M118.59,312.14v9.25H128v2.06h-9.39v9.39H129v2.06H116.11V310.08H129v2.06Z"/><path class="cls-3" d="M142.09,332.88H151v2H139.61V310.12h2.48Z"/><path class="cls-3" d="M178.06,332.88H187v2H175.58V310.12h2.48Z"/><path class="cls-3" d="M210.53,329H199.26l-2.16,5.89h-2.63l9-24.46h2.8l9,24.46h-2.62Zm-.75-2.05-4.89-13.4L200,327Z"/><path class="cls-3" d="M243.63,334.9h-2.48l-13.72-20.85V334.9H225V310.12h2.48l13.72,20.81V310.12h2.48Z"/><path class="cls-3" d="M268.16,334.9l-10.74-11.45V334.9h-2.48V310.12h2.48v11.59l10.74-11.59h3.15l-11.59,12.37,11.7,12.41Z"/><path class="cls-3" d="M295.09,329H283.82l-2.16,5.89H279l9-24.46h2.8l9,24.46h-2.62Zm-.74-2.05-4.89-13.4L284.57,327Z"/></svg>